<?xml version="1.0" encoding="UTF-8"?>
<svg width="22px" height="24px" viewBox="0 0 22 24" version="1.1" xmlns="http://www.w3.org/2000/svg" xmlns:xlink="http://www.w3.org/1999/xlink">
    <!-- Generator: sketchtool 57.1 (101010) - https://sketch.com -->
    <title>156D9139-8412-4DCF-AB4A-E1B2AFB8AAF0</title>
    <desc>Created with sketchtool.</desc>
    <g id="Icons" stroke="none" stroke-width="1" fill="none" fill-rule="evenodd">
        <g id="IoT-Dashboard" transform="translate(-437.000000, -433.000000)" fill="#212121">
            <g id="icon/device/commands-icon/device/command" transform="translate(436.000000, 433.000000)">
                <path d="M12,0 L23,6 L23,18 L12,24 L1,18 L1,6 L12,0 Z M6.5,6 C6.22385763,6 6,6.22385763 6,6.5 L6,6.5 L5.999,12.999 L4,13 L4,15 L5.999,14.999 L6,17.5 C6,17.7761424 6.22385763,18 6.5,18 C6.77614237,18 7,17.7761424 7,17.5 L7,17.5 L6.999,14.999 L9,15 L9,13 L6.999,12.999 L7,6.5 C7,6.22385763 6.77614237,6 6.5,6 Z M12.5,6 C12.2238576,6 12,6.22385763 12,6.5 L12,6.5 L12,8.999 L10,9 L10,11 L12,10.999 L12,17.5 C12,17.7761424 12.2238576,18 12.5,18 C12.7761424,18 13,17.7761424 13,17.5 L13,17.5 L13,10.999 L15,11 L15,9 L13,8.999 L13,6.5 C13,6.22385763 12.7761424,6 12.5,6 Z M18.5,6 C18.2238576,6 18,6.22385763 18,6.5 L18,6.5 L18,14 L16,14 L16,16 L18,16 L18,17.5 C18,17.7761424 18.2238576,18 18.5,18 C18.7761424,18 19,17.7761424 19,17.5 L19,17.5 L19,16 L21,16 L21,14 L19,14 L19,6.5 C19,6.22385763 18.7761424,6 18.5,6 Z" id="Combined-Shape"></path>
            </g>
        </g>
    </g>
</svg>