<?xml version="1.0" encoding="UTF-8"?>
<svg width="24px" height="24px" viewBox="0 0 24 24" version="1.1" xmlns="http://www.w3.org/2000/svg" xmlns:xlink="http://www.w3.org/1999/xlink">
    <!-- Generator: sketchtool 57.1 (101010) - https://sketch.com -->
    <title>C24F6254-6526-4FAA-AB62-7965FE1DA107</title>
    <desc>Created with sketchtool.</desc>
    <g id="Icons" stroke="none" stroke-width="1" fill="none" fill-rule="evenodd">
        <g id="IoT-Dashboard" transform="translate(-436.000000, -433.000000)" fill="#212121" fill-rule="nonzero">
            <g id="icon/device/commands-icon/device/command" transform="translate(436.000000, 433.000000)">
                <path d="M15,0 C15.5522847,-1.01453063e-16 16,0.44771525 16,1 L16,3 L18,3 C19.6568542,3 21,4.34314575 21,6 L21,8 L23,8 C23.5522847,8 24,8.44771525 24,9 C24,9.55228475 23.5522847,10 23,10 L21,10 L21,11 L23,11 C23.5522847,11 24,11.4477153 24,12 C24,12.5522847 23.5522847,13 23,13 L21,13 L21,14 L23,14 C23.5522847,14 24,14.4477153 24,15 C24,15.5522847 23.5522847,16 23,16 L21,16 L21,18 C21,19.6568542 19.6568542,21 18,21 L16,21 L16,23 C16,23.5522847 15.5522847,24 15,24 C14.4477153,24 14,23.5522847 14,23 L14,21 L13,21 L13,23 C13,23.5522847 12.5522847,24 12,24 C11.4477153,24 11,23.5522847 11,23 L11,21 L10,21 L10,23 C10,23.5522847 9.55228475,24 9,24 C8.44771525,24 8,23.5522847 8,23 L8,21 L6,21 C4.34314575,21 3,19.6568542 3,18 L3,16 L1,16 C0.44771525,16 0,15.5522847 0,15 C0,14.4477153 0.44771525,14 1,14 L3,14 L3,12.999 L1,13 C0.44771525,13 0,12.5522847 0,12 C0,11.4477153 0.44771525,11 1,11 L3,10.999 L3,10 L1,10 C0.44771525,10 0,9.55228475 0,9 C0,8.44771525 0.44771525,8 1,8 L3,8 L3,6 C3,4.34314575 4.34314575,3 6,3 L8,3 L8,1 C8,0.44771525 8.44771525,1.01453063e-16 9,0 C9.55228475,-1.01453063e-16 10,0.44771525 10,1 L10,3 L11,3 L11,1 C11,0.44771525 11.4477153,1.01453063e-16 12,0 C12.5522847,-1.01453063e-16 13,0.44771525 13,1 L13,3 L14,3 L14,1 C14,0.44771525 14.4477153,1.01453063e-16 15,0 Z M8.5,6 C8.22385763,6 8,6.22385763 8,6.5 L8,6.5 L7.999,13 L6,13 L6,15 L7.999,15 L8,17.5 C8,17.7761424 8.22385763,18 8.5,18 C8.77614237,18 9,17.7761424 9,17.5 L9,17.5 L8.999,15 L11,15 L11,13 L8.999,13 L9,6.5 C9,6.22385763 8.77614237,6 8.5,6 Z M15.5,6 C15.2238576,6 15,6.22385763 15,6.5 L15,6.5 L15,9 L13,9 L13,11 L15,11 L15,17.5 C15,17.7761424 15.2238576,18 15.5,18 C15.7761424,18 16,17.7761424 16,17.5 L16,17.5 L16,11 L18,11 L18,9 L16,9 L16,6.5 C16,6.22385763 15.7761424,6 15.5,6 Z" id="Path-2"></path>
            </g>
        </g>
    </g>
</svg>