<?xml version="1.0" encoding="UTF-8"?>
<svg width="20px" height="19px" viewBox="0 0 20 19" version="1.1" xmlns="http://www.w3.org/2000/svg" xmlns:xlink="http://www.w3.org/1999/xlink">
    <!-- Generator: sketchtool 57.1 (101010) - https://sketch.com -->
    <title>72ABAD91-ABC5-4B8E-BBC6-4CFCCA44D888</title>
    <desc>Created with sketchtool.</desc>
    <g id="Icons" stroke="none" stroke-width="1" fill="none" fill-rule="evenodd">
        <g id="IoT-Dashboard" transform="translate(-438.000000, -295.000000)" fill="#212121" fill-rule="nonzero">
            <g id="icon/IoT-dashboard-icon/device/dashboard" transform="translate(436.000000, 292.000000)">
                <path d="M22,16.0000002 L22,16.9205716 C22,17.5165716 21.5023529,18.0000002 20.8888235,18.0000002 L3.11176471,18.0000002 C2.49823529,18.0000002 2.00058824,17.5165716 2.00058824,16.9205716 L2,16.0000002 L22,16.0000002 Z M9,18 L15,18 L15,21 L9,21 L9,18 Z M2,21 L22,21 L22,22 L2,22 L2,21 Z M9.54709492,15.5754701 L13.0289164,12.193169 C13.0714529,12.1518479 13.1104278,12.1084838 13.1467568,12.0637027 C14.2442941,12.3962487 15.4898274,12.1410398 16.3591803,11.2965272 C17.2448491,10.4360991 17.5009841,9.19630093 17.1288065,8.11575714 L15.433519,9.76263742 L13.950575,9.24800174 L13.4208359,7.80743046 L15.1161233,6.16055018 C14.0038305,5.79907283 12.7274973,6.04785624 11.8418285,6.90828438 C10.9724416,7.75279697 10.7097939,8.96277404 11.0520874,10.028918 C11.0060231,10.0641761 10.9613496,10.1021362 10.9187791,10.1434573 L7.43699156,13.5257254 C6.85433615,14.0917324 6.85433615,15.0094301 7.43699156,15.5754701 C8.0196809,16.14151 8.9644395,16.14151 9.54709492,15.5754701 Z M8.49205596,16 L2,16.0000002 L2,4.079429 C2,3.79314675 2.11707004,3.51858988 2.32545605,3.31615776 C2.53384206,3.11372564 2.81647415,3.00000015 3.11117647,3.00000015 L20.8882353,3.00000015 C21.1830395,2.99984885 21.4658227,3.1135071 21.674336,3.31595565 C21.8828493,3.51840421 22,3.79304772 22,4.079429 L22,16.0000002 L8.49205596,16 L8.49205596,16 Z" id="Combined-Shape"></path>
            </g>
        </g>
    </g>
</svg>