<?xml version="1.0" encoding="UTF-8"?>
<svg width="22px" height="22px" viewBox="0 0 22 22" version="1.1" xmlns="http://www.w3.org/2000/svg" xmlns:xlink="http://www.w3.org/1999/xlink">
    <!-- Generator: sketchtool 57.1 (101010) - https://sketch.com -->
    <title>7C633B18-48F1-43E4-AECB-7C29CB7C7461</title>
    <desc>Created with sketchtool.</desc>
    <g id="Icons" stroke="none" stroke-width="1" fill="none" fill-rule="evenodd">
        <g id="IoT-Dashboard" transform="translate(-438.000000, -337.000000)" fill="#212121">
            <g id="icon/device-icon/device/device" transform="translate(436.000000, 337.000000)">
                <path d="M17.0127323,5.07057133 C17.0127323,6.95126126 16.3044613,8.66443839 15.1432863,9.95151351 L14.131459,8.92599184 C15.0342599,7.9020824 15.5830157,6.55121982 15.5830157,5.07057133 C15.5830157,3.51936304 14.9807122,2.1106052 14,1.07101749 L15.0111119,0.0470173389 C16.2504905,1.34878971 17.0127323,3.11954182 17.0127323,5.07057133 Z M18.161241,-2 L18.1865493,-1.97413056 C19.9282755,-0.15056391 21,2.33326722 21,5.07057133 C21,7.75062927 19.9726334,10.1877053 18.2949424,12 L17.2832807,10.9757422 C18.7025808,9.42596744 19.5702833,7.35087931 19.5702833,5.07057133 C19.5702833,2.72002725 18.6483051,0.58753973 17.1505719,-0.976299628 L18.161241,-2 Z" id="Shape" fill-rule="nonzero" transform="translate(17.500000, 5.000000) rotate(-60.000000) translate(-17.500000, -5.000000) "></path>
                <path d="M10.75,7 C11.095178,7 11.375,7.27982203 11.375,7.625 L11.375,8.875 L13.25,8.875 C14.2855339,8.875 15.125,9.71446609 15.125,10.75 L15.125,12 L16.375,12 C16.720178,12 17,12.279822 17,12.625 C17,12.970178 16.720178,13.25 16.375,13.25 L15.125,13.25 L15.125,15.125 L16.375,15.125 C16.720178,15.125 17,15.404822 17,15.75 C17,16.095178 16.720178,16.375 16.375,16.375 L15.125,16.375 L15.125,18.25 C15.125,19.2855339 14.2855339,20.125 13.25,20.125 L11.375,20.125 L11.375,21.375 C11.375,21.720178 11.095178,22 10.75,22 C10.404822,22 10.125,21.720178 10.125,21.375 L10.125,20.125 L8.875,20.125 L8.875,21.375 C8.875,21.720178 8.59517797,22 8.25,22 C7.90482203,22 7.625,21.720178 7.625,21.375 L7.625,20.125 L5.75,20.125 C4.71446609,20.125 3.875,19.2855339 3.875,18.25 L3.875,16.375 L2.625,16.375 C2.27982203,16.375 2,16.095178 2,15.75 C2,15.404822 2.27982203,15.125 2.625,15.125 L3.875,15.125 L3.875,13.25 L2.625,13.25 C2.27982203,13.25 2,12.970178 2,12.625 C2,12.279822 2.27982203,12 2.625,12 L3.875,12 L3.875,10.75 C3.875,9.71446609 4.71446609,8.875 5.75,8.875 L7.625,8.875 L7.625,7.625 C7.625,7.27982203 7.90482203,7 8.25,7 C8.59517797,7 8.875,7.27982203 8.875,7.625 L8.875,8.875 L10.125,8.875 L10.125,7.625 C10.125,7.27982203 10.404822,7 10.75,7 Z" id="Combined-Shape"></path>
            </g>
        </g>
    </g>
</svg>