<?xml version="1.0" encoding="UTF-8"?>
<svg width="16px" height="20px" viewBox="0 0 16 20" version="1.1" xmlns="http://www.w3.org/2000/svg" xmlns:xlink="http://www.w3.org/1999/xlink">
    <!-- Generator: sketchtool 57.1 (101010) - https://sketch.com -->
    <title>79170E36-E3CB-475E-83D8-3FA29D2A2CC0</title>
    <desc>Created with sketchtool.</desc>
    <g id="Icons" stroke="none" stroke-width="1" fill="none" fill-rule="evenodd">
        <g id="IoT-Dashboard" transform="translate(-704.000000, -379.000000)" fill="#212121">
            <g id="icon/gateway-location" transform="translate(700.000000, 376.000000)">
                <path d="M12,3 C16.418278,3 20,6.5 20,11 C20,15.5 14.5,21 12,23 C9,21 4,15.5 4,11 C4,6.5 7.581722,3 12,3 Z M13.6920106,7.10309523 C12.6591674,6.83045789 11.5132448,7.09846966 10.7034905,7.90828438 C9.85894322,8.75279697 9.60379967,9.96277404 9.93631337,11.028918 C9.89156522,11.0641761 9.84816808,11.1021362 9.80681393,11.1434573 L9.80681393,11.1434573 L8.72263223,12.2272543 C9.21060339,13.0802461 9.92044264,13.7899985 10.7735026,14.2778641 L10.7735026,14.2778641 L11.8566615,13.193169 L11.9161596,13.1297333 L11.9161596,13.1297333 L11.9711351,13.0637027 C13.0373142,13.3962487 14.2472607,13.1410398 15.091775,12.2965272 C15.9521389,11.4360991 16.2009558,10.1963009 15.8394118,9.11575714 L15.8394118,9.11575714 L14.1925612,10.7626374 L12.751987,10.2480017 L12.2373833,8.80743046 L13.8842339,7.16055018 Z" id="Combined-Shape"></path>
            </g>
        </g>
    </g>
</svg>