<?xml version="1.0" encoding="UTF-8"?>
<svg width="24px" height="18px" viewBox="0 0 24 18" version="1.1" xmlns="http://www.w3.org/2000/svg" xmlns:xlink="http://www.w3.org/1999/xlink">
    <!-- Generator: sketchtool 57.1 (101010) - https://sketch.com -->
    <title>430635D5-D89C-4C28-821D-8F6DA5A99B2E</title>
    <desc>Created with sketchtool.</desc>
    <g id="Icons" stroke="none" stroke-width="1" fill="none" fill-rule="evenodd">
        <g id="IoT-Dashboard" transform="translate(-700.000000, -343.000000)" fill="#000000" fill-rule="nonzero">
            <g id="icon/gateway-icon/gateway-" transform="translate(700.000000, 340.000000)">
                <path d="M22.2515003,3.01608862 C23.2506072,3.14299184 23.9994917,3.99301395 23.9994917,5.00014801 C23.9994917,6.00728208 23.2506072,6.85730419 22.2515003,6.98420741 C21.2523934,7.11111062 20.3147835,6.47530138 20.063,5.50014801 L19,5.50014801 C18.71,5.50014801 18.5,5.68414801 18.5,5.87514801 L18.5,11.500148 L20.063,11.500148 C20.3147835,10.5249947 21.2523934,9.88918541 22.2515003,10.0160886 C23.2506072,10.1429918 23.9994917,10.993014 23.9994917,12.000148 C23.9994917,13.0072821 23.2506072,13.8573042 22.2515003,13.9842074 C21.2523934,14.1111106 20.3147835,13.4753014 20.063,12.500148 L18.5,12.500148 L18.5,18.125148 C18.5,18.316148 18.71,18.500148 19,18.500148 L20.063,18.500148 C20.3147835,17.5249947 21.2523934,16.8891854 22.2515003,17.0160886 C23.2506072,17.1429918 23.9994917,17.993014 23.9994917,19.000148 C23.9994917,20.0072821 23.2506072,20.8573042 22.2515003,20.9842074 C21.2523934,21.1111106 20.3147835,20.4753014 20.063,19.500148 L19,19.500148 C18.185,19.500148 17.5,18.900148 17.5,18.125148 L17.5,12.500148 L14.934,12.500148 C14.4039962,16.4095777 10.9362191,19.2402757 6.99984165,18.9766908 C3.06346418,18.7131058 0.00404829269,15.4453385 8.34887715e-14,11.500148 C8.34887715e-14,7.35801239 3.35786438,4.00014801 7.5,4.00014801 C11.6421356,4.00014801 15,7.35801239 15,11.500148 L17.5,11.500148 L17.5,5.87514801 C17.5,5.10014801 18.185,4.50014801 19,4.50014801 L20.063,4.50014801 C20.3147835,3.52499465 21.2523934,2.88918541 22.2515003,3.01608862 Z M11.3571429,11.8181818 L3.64285714,11.8181818 L3.54786043,11.825152 C3.23786525,11.8710677 3,12.1382751 3,12.461039 L3,12.461039 L3,14.3571429 L3.00697022,14.4521396 C3.05288592,14.7621348 3.32009333,15 3.64285714,15 L3.64285714,15 L11.3571429,15 L11.4521396,14.9930298 C11.7621348,14.9471141 12,14.6799067 12,14.3571429 L12,14.3571429 L12,12.461039 L11.9930298,12.3660422 C11.9471141,12.0560471 11.6799067,11.8181818 11.3571429,11.8181818 L11.3571429,11.8181818 Z M8.14285714,13.0909091 C8.49789734,13.0909091 8.78571429,13.2333639 8.78571429,13.4090909 C8.78571429,13.5848179 8.49789734,13.7272727 8.14285714,13.7272727 C7.78781695,13.7272727 7.5,13.5848179 7.5,13.4090909 C7.5,13.2333639 7.78781695,13.0909091 8.14285714,13.0909091 Z M10.0714286,13.0909091 C10.4264688,13.0909091 10.7142857,13.2333639 10.7142857,13.4090909 C10.7142857,13.5848179 10.4264688,13.7272727 10.0714286,13.7272727 C9.71638838,13.7272727 9.42857143,13.5848179 9.42857143,13.4090909 C9.42857143,13.2333639 9.71638838,13.0909091 10.0714286,13.0909091 Z M11.3571429,8 L3.64285714,8 L3.54786043,8.00697022 C3.23786525,8.05288592 3,8.32009333 3,8.64285714 L3,8.64285714 L3,10.538961 L3.00697022,10.6339578 C3.05288592,10.9439529 3.32009333,11.1818182 3.64285714,11.1818182 L3.64285714,11.1818182 L11.3571429,11.1818182 L11.4521396,11.174848 C11.7621348,11.1289323 12,10.8617249 12,10.538961 L12,10.538961 L12,8.64285714 L11.9930298,8.54786043 C11.9471141,8.23786525 11.6799067,8 11.3571429,8 L11.3571429,8 Z M8.14285714,9.27272727 C8.49789734,9.27272727 8.78571429,9.41518213 8.78571429,9.59090909 C8.78571429,9.76663606 8.49789734,9.90909091 8.14285714,9.90909091 C7.78781695,9.90909091 7.5,9.76663606 7.5,9.59090909 C7.5,9.41518213 7.78781695,9.27272727 8.14285714,9.27272727 Z M10.0714286,9.27272727 C10.4264688,9.27272727 10.7142857,9.41518213 10.7142857,9.59090909 C10.7142857,9.76663606 10.4264688,9.90909091 10.0714286,9.90909091 C9.71638838,9.90909091 9.42857143,9.76663606 9.42857143,9.59090909 C9.42857143,9.41518213 9.71638838,9.27272727 10.0714286,9.27272727 Z" id="gateway"></path>
            </g>
        </g>
    </g>
</svg>