<?xml version="1.0" encoding="UTF-8"?>
<svg width="16px" height="20px" viewBox="0 0 16 20" version="1.1" xmlns="http://www.w3.org/2000/svg" xmlns:xlink="http://www.w3.org/1999/xlink">
    <!-- Generator: sketchtool 57.1 (101010) - https://sketch.com -->
    <title>2B5EEA4E-580C-4F3E-8069-6C076E18B25A</title>
    <desc>Created with sketchtool.</desc>
    <g id="Icons" stroke="none" stroke-width="1" fill="none" fill-rule="evenodd">
        <g id="IoT-Dashboard" transform="translate(-704.000000, -379.000000)" fill="#212121">
            <g id="icon/gateway-location" transform="translate(700.000000, 376.000000)">
                <path d="M12,3 C16.418278,3 20,6.5 20,11 C20,15.5 14.5,21 12,23 C9,21 4,15.5 4,11 C4,6.5 7.581722,3 12,3 Z M15.4285714,10.2727273 L8.57142857,10.2727273 L8.47873989,10.2802063 C8.2072282,10.3244923 8,10.5601237 8,10.8441558 L8,10.8441558 L8,12.4285714 L8.00747904,12.5212601 C8.051765,12.7927718 8.28739641,13 8.57142857,13 L8.57142857,13 L15.4285714,13 L15.5212601,12.992521 C15.7927718,12.948235 16,12.7126036 16,12.4285714 L16,12.4285714 L16,10.8441558 L15.992521,10.7514672 C15.948235,10.4799555 15.7126036,10.2727273 15.4285714,10.2727273 L15.4285714,10.2727273 Z M12.5714286,11.3636364 C12.8870199,11.3636364 13.1428571,11.4857405 13.1428571,11.6363636 C13.1428571,11.7869867 12.8870199,11.9090909 12.5714286,11.9090909 C12.2558373,11.9090909 12,11.7869867 12,11.6363636 C12,11.4857405 12.2558373,11.3636364 12.5714286,11.3636364 Z M14.2857143,11.3636364 C14.6013056,11.3636364 14.8571429,11.4857405 14.8571429,11.6363636 C14.8571429,11.7869867 14.6013056,11.9090909 14.2857143,11.9090909 C13.970123,11.9090909 13.7142857,11.7869867 13.7142857,11.6363636 C13.7142857,11.4857405 13.970123,11.3636364 14.2857143,11.3636364 Z M15.4285714,7 L8.57142857,7 L8.47873989,7.00747904 C8.2072282,7.051765 8,7.28739641 8,7.57142857 L8,7.57142857 L8,9.15584416 L8.00747904,9.24853284 C8.051765,9.52004453 8.28739641,9.72727273 8.57142857,9.72727273 L8.57142857,9.72727273 L15.4285714,9.72727273 L15.5212601,9.71979369 C15.7927718,9.67550773 16,9.43987631 16,9.15584416 L16,9.15584416 L16,7.57142857 L15.992521,7.47873989 C15.948235,7.2072282 15.7126036,7 15.4285714,7 L15.4285714,7 Z M12.5714286,8.09090909 C12.8870199,8.09090909 13.1428571,8.21301325 13.1428571,8.36363636 C13.1428571,8.51425948 12.8870199,8.63636364 12.5714286,8.63636364 C12.2558373,8.63636364 12,8.51425948 12,8.36363636 C12,8.21301325 12.2558373,8.09090909 12.5714286,8.09090909 Z M14.2857143,8.09090909 C14.6013056,8.09090909 14.8571429,8.21301325 14.8571429,8.36363636 C14.8571429,8.51425948 14.6013056,8.63636364 14.2857143,8.63636364 C13.970123,8.63636364 13.7142857,8.51425948 13.7142857,8.36363636 C13.7142857,8.21301325 13.970123,8.09090909 14.2857143,8.09090909 Z" id="Combined-Shape"></path>
            </g>
        </g>
    </g>
</svg>