<?xml version="1.0" encoding="UTF-8"?>
<svg width="20px" height="19px" viewBox="0 0 20 19" version="1.1" xmlns="http://www.w3.org/2000/svg" xmlns:xlink="http://www.w3.org/1999/xlink">
    <!-- Generator: sketchtool 57.1 (101010) - https://sketch.com -->
    <title>40087683-207B-4D66-B15A-49EDF98D5C34</title>
    <desc>Created with sketchtool.</desc>
    <g id="Icons" stroke="none" stroke-width="1" fill="none" fill-rule="evenodd">
        <g id="IoT-Dashboard" transform="translate(-702.000000, -295.000000)" fill="#212121" fill-rule="nonzero">
            <g id="icon/gateway-dashboard" transform="translate(700.000000, 292.000000)">
                <path d="M9,17 L3.11176471,17.0000002 C2.49823529,17.0000002 2.00058824,16.5165716 2.00058824,15.9205716 L2,15.0000002 L22,15.0000002 L22,15.9205716 C22,16.5165716 21.5023529,17.0000002 20.8888235,17.0000002 L15,17.0000002 L15,21 L22,21 L22,22 L2,22 L2,21 L9,21 L9,17 Z" id="IoT-Dashboard-Copy"></path>
                <path d="M20.8882353,3.00000015 C21.1830395,2.99984885 21.4658227,3.1135071 21.674336,3.31595565 C21.8828493,3.51840421 22,3.79304772 22,4.079429 L22,16.0000002 L2,16.0000002 L2,4.079429 C2,3.79314675 2.11707004,3.51858988 2.32545605,3.31615776 C2.53384206,3.11372564 2.81647415,3.00000015 3.11117647,3.00000015 L20.8882353,3.00000015 Z M17.1259858,5.00804418 C16.6264218,4.94459361 16.1576069,5.26249301 16.0317125,5.75006167 L16.0317125,5.75006167 L15.5002012,5.75006167 C15.0926926,5.75006167 14.7501853,6.05005674 14.7501853,6.43755037 L14.7501853,6.43755037 L14.7501853,9.25000411 L11.9912491,9.2505685 C11.8633383,7.43398027 10.3491312,6 8.5,6 C6.56700338,6 5,7.56700338 5,9.5 C5,11.4329966 6.56700338,13 8.5,13 C10.3491312,13 11.8633383,11.5660197 11.9912491,9.7494315 L11.9912491,9.7494315 L14.7501853,9.74999589 L14.7501853,12.5624496 C14.7501853,12.9499433 15.0926926,13.2499383 15.5002012,13.2499383 L15.5002012,13.2499383 L16.0317125,13.2499383 C16.1576069,13.737507 16.6264218,14.0554064 17.1259858,13.9919558 C17.6255498,13.9285053 18,13.5035012 18,12.9999424 C18,12.4963837 17.6255498,12.0713796 17.1259858,12.0079291 C16.6264218,11.9444785 16.1576069,12.2623779 16.0317125,12.7499466 L16.0317125,12.7499466 L15.5002012,12.7499466 C15.3551981,12.7499466 15.2501959,12.6579481 15.2501959,12.5624496 L15.2501959,12.5624496 L15.2501959,9.74999589 L16.0317125,9.74999589 C16.1576069,10.2375646 16.6264218,10.5554639 17.1259858,10.4920134 C17.6255498,10.4285628 18,10.0035587 18,9.5 C18,8.99644125 17.6255498,8.57143718 17.1259858,8.50798662 C16.6264218,8.44453605 16.1576069,8.76243545 16.0317125,9.25000411 L16.0317125,9.25000411 L15.2501959,9.25000411 L15.2501959,6.43755037 C15.2501959,6.34205194 15.3551981,6.25005345 15.5002012,6.25005345 L15.5002012,6.25005345 L16.0317125,6.25005345 C16.1576069,6.73762211 16.6264218,7.05552151 17.1259858,6.99207094 C17.6255498,6.92862038 18,6.50361631 18,6.00005756 C18,5.49649881 17.6255498,5.07149474 17.1259858,5.00804418 Z" id="screen"></path>
            </g>
        </g>
    </g>
</svg>