<?xml version="1.0" encoding="UTF-8"?>
<svg width="24px" height="18px" viewBox="0 0 24 18" version="1.1" xmlns="http://www.w3.org/2000/svg" xmlns:xlink="http://www.w3.org/1999/xlink">
    <!-- Generator: sketchtool 57.1 (101010) - https://sketch.com -->
    <title>2E0EA4D2-0D52-4707-8EA2-D403C1D632FE</title>
    <desc>Created with sketchtool.</desc>
    <g id="Icons" stroke="none" stroke-width="1" fill="none" fill-rule="evenodd">
        <g id="IoT-Dashboard" transform="translate(-700.000000, -343.000000)" fill="#000000" fill-rule="nonzero">
            <g id="icon/gateway" transform="translate(700.000000, 340.000000)">
                <path d="M22.2515003,3.01594061 C23.2506072,3.14284382 23.9994917,3.99286594 23.9994917,5 C23.9994917,6.00713406 23.2506072,6.85715618 22.2515003,6.98405939 C21.2523934,7.11096261 20.3147835,6.47515336 20.063,5.5 L19,5.5 C18.71,5.5 18.5,5.684 18.5,5.875 L18.5,11.5 L20.063,11.5 C20.3147835,10.5248466 21.2523934,9.88903739 22.2515003,10.0159406 C23.2506072,10.1428438 23.9994917,10.9928659 23.9994917,12 C23.9994917,13.0071341 23.2506072,13.8571562 22.2515003,13.9840594 C21.2523934,14.1109626 20.3147835,13.4751534 20.063,12.5 L18.5,12.5 L18.5,18.125 C18.5,18.316 18.71,18.5 19,18.5 L20.063,18.5 C20.3147835,17.5248466 21.2523934,16.8890374 22.2515003,17.0159406 C23.2506072,17.1428438 23.9994917,17.9928659 23.9994917,19 C23.9994917,20.0071341 23.2506072,20.8571562 22.2515003,20.9840594 C21.2523934,21.1109626 20.3147835,20.4751534 20.063,19.5 L19,19.5 C18.185,19.5 17.5,18.9 17.5,18.125 L17.5,12.5 L14.934,12.5 C14.4039962,16.4094297 10.9362191,19.2401277 6.99984165,18.9765428 C5.79869164,18.8961122 4.67919641,18.5359592 3.70324879,17.9621916 L6.61365999,15.0509716 C6.66737755,14.9972542 6.71659722,14.9408809 6.76247561,14.8826655 C8.14850843,15.3149753 9.72143892,14.9832037 10.8193075,13.8853373 C11.9377806,12.7667808 12.2612425,11.1550432 11.7912354,9.75033626 L9.65032956,11.8912806 L7.77758315,11.2222543 L7.10859828,9.34951159 L9.24950409,7.20856723 C7.84483719,6.73864667 6.23301073,7.0620651 5.11453759,8.18062168 C4.01662619,9.27848804 3.68493958,10.8514582 4.11720738,12.2374454 C4.05903479,12.2832809 4.0026185,12.332629 3.94885811,12.3863464 L1.03663218,15.2987141 C0.378235317,14.1825114 0.00141901093,12.8828715 0,11.5 C0,7.35786438 3.35786438,4 7.5,4 C11.6421356,4 15,7.35786438 15,11.5 L17.5,11.5 L17.5,5.875 C17.5,5.1 18.185,4.5 19,4.5 L20.063,4.5 C20.3147835,3.52484664 21.2523934,2.88903739 22.2515003,3.01594061 Z" id="gateway"></path>
            </g>
        </g>
    </g>
</svg>