<?xml version="1.0" encoding="UTF-8"?>
<svg width="24px" height="24px" viewBox="0 0 24 24" version="1.1" xmlns="http://www.w3.org/2000/svg" xmlns:xlink="http://www.w3.org/1999/xlink">
    <!-- Generator: sketchtool 57.1 (101010) - https://sketch.com -->
    <title>E1E77675-1426-4CF1-A863-1FA8C82D2A3B</title>
    <desc>Created with sketchtool.</desc>
    <g id="Icons" stroke="none" stroke-width="1" fill="none" fill-rule="evenodd">
        <g id="IoT-Dashboard" transform="translate(-436.000000, -385.000000)" fill="#212121">
            <g id="icon/device/provisioning-icon/device/provisioning-" transform="translate(436.000000, 385.000000)">
                <path d="M15,1.77635684e-15 C15.5522847,1.67490378e-15 16,0.44771525 16,1 L16,3 L18,3 C19.6568542,3 21,4.34314575 21,6 L21,8 L23,8 C23.5522847,8 24,8.44771525 24,9 C24,9.55228475 23.5522847,10 23,10 L21,10 L21,11 L23,11 C23.5522847,11 24,11.4477153 24,12 C24,12.5522847 23.5522847,13 23,13 L21,13 L21,14 L23,14 C23.5522847,14 24,14.4477153 24,15 C24,15.5522847 23.5522847,16 23,16 L21,16 L21,18 C21,19.6568542 19.6568542,21 18,21 L16,21 L16,23 C16,23.5522847 15.5522847,24 15,24 C14.4477153,24 14,23.5522847 14,23 L14,21 L13,21 L13,23 C13,23.5522847 12.5522847,24 12,24 C11.4477153,24 11,23.5522847 11,23 L11,21 L10,21 L10,23 C10,23.5522847 9.55228475,24 9,24 C8.44771525,24 8,23.5522847 8,23 L8,21 L6,21 C4.34314575,21 3,19.6568542 3,18 L3,16 L1,16 C0.44771525,16 -7.10542736e-15,15.5522847 -7.10542736e-15,15 C-7.10542736e-15,14.4477153 0.44771525,14 1,14 L3,14 L3,12.999 L1,13 C0.44771525,13 -7.10542736e-15,12.5522847 -7.10542736e-15,12 C-7.10542736e-15,11.4477153 0.44771525,11 1,11 L3,10.999 L3,10 L1,10 C0.44771525,10 -7.10542736e-15,9.55228475 -7.10542736e-15,9 C-7.10542736e-15,8.44771525 0.44771525,8 1,8 L3,8 L3,6 C3,4.34314575 4.34314575,3 6,3 L8,3 L8,1 C8,0.44771525 8.44771525,1.8778099e-15 9,1.77635684e-15 C9.55228475,1.67490378e-15 10,0.44771525 10,1 L10,3 L11,3 L11,1 C11,0.44771525 11.4477153,1.8778099e-15 12,1.77635684e-15 C12.5522847,1.67490378e-15 13,0.44771525 13,1 L13,3 L14,3 L14,1 C14,0.44771525 14.4477153,1.8778099e-15 15,1.77635684e-15 Z M12,6 C11.4477153,6 11,6.44771525 11,7 L11,7 L11,11 L7,11 C6.44771525,11 6,11.4477153 6,12 C6,12.5128358 6.38604019,12.9355072 6.88337887,12.9932723 L7,13 L11,13 L11,17 C11,17.5128358 11.3860402,17.9355072 11.8833789,17.9932723 L12,18 C12.5522847,18 13,17.5522847 13,17 L13,17 L13,13 L17,13 C17.5522847,13 18,12.5522847 18,12 C18,11.4477153 17.5522847,11 17,11 L13,11 L13,7 C13,6.48716416 12.6139598,6.06449284 12.1166211,6.00672773 Z" id="Combined-Shape"></path>
            </g>
        </g>
    </g>
</svg>