<?xml version="1.0" encoding="UTF-8"?>
<svg width="18px" height="20px" viewBox="0 0 18 20" version="1.1" xmlns="http://www.w3.org/2000/svg" xmlns:xlink="http://www.w3.org/1999/xlink">
    <!-- Generator: sketchtool 57.1 (101010) - https://sketch.com -->
    <title>96167160-A78E-4BA2-A20D-2E52DBF0E37A</title>
    <desc>Created with sketchtool.</desc>
    <defs>
        <path d="M4.23753867,2 L19.7624613,2 C20.4459351,2 21,2.55964406 21,3.25 L21,20.75 C21,21.4403559 20.4459351,22 19.7624613,22 L4.23753867,22 C3.55406494,22 3,21.4403559 3,20.75 L3,3.25 C3,2.55964406 3.55406494,2 4.23753867,2 Z M10.5,6 L18.5,6 C18.7761424,6 19,6.22385763 19,6.5 C19,6.77614237 18.7761424,7 18.5,7 L10.5,7 C10.2238576,7 10,6.77614237 10,6.5 C10,6.22385763 10.2238576,6 10.5,6 Z M10.5,12 L18.5,12 C18.7761424,12 19,12.2238576 19,12.5 C19,12.7761424 18.7761424,13 18.5,13 L10.5,13 C10.2238576,13 10,12.7761424 10,12.5 C10,12.2238576 10.2238576,12 10.5,12 Z M10.5,18 L18.5,18 C18.7761424,18 19,18.2238576 19,18.5 C19,18.7761424 18.7761424,19 18.5,19 L10.5,19 C10.2238576,19 10,18.7761424 10,18.5 C10,18.2238576 10.2238576,18 10.5,18 Z M5.34387895,5 C5.15395985,5 5,5.15388929 5,5.34372136 L5,7.65627864 C5,7.84601283 5.15268226,8 5.34387895,8 L7.65612105,8 C7.84604015,8 8,7.84611071 8,7.65627864 L8,5.34372136 C8,5.15388929 7.84604015,5 7.65612105,5 L5.34250344,5 L5.34387895,5 Z M5.34387895,11 C5.15395985,11 5,11.1538893 5,11.3437214 L5,13.6562786 C5,13.8460128 5.15268226,14 5.34387895,14 L7.65612105,14 C7.84604015,14 8,13.8461107 8,13.6562786 L8,11.3437214 C8,11.1538893 7.84604015,11 7.65612105,11 L5.34250344,11 L5.34387895,11 Z M5.34387895,17 C5.15395985,17 5,17.1538893 5,17.3437214 L5,19.6562786 C5,19.8460128 5.15268226,20 5.34387895,20 L7.65612105,20 C7.84604015,20 8,19.8461107 8,19.6562786 L8,17.3437214 C8,17.1538893 7.84604015,17 7.65612105,17 L5.34250344,17 L5.34387895,17 Z" id="path-1"></path>
    </defs>
    <g id="Icons" stroke="none" stroke-width="1" fill="none" fill-rule="evenodd">
        <g id="IoT-Dashboard" transform="translate(-439.000000, -483.000000)">
            <g id="icon/rules" transform="translate(436.000000, 481.000000)">
                <mask id="mask-2" fill="white">
                    <use xlink:href="#path-1"></use>
                </mask>
                <use id="a" fill="#212121" xlink:href="#path-1"></use>
            </g>
        </g>
    </g>
</svg>