<?xml version="1.0" encoding="UTF-8"?>
<svg width="24px" height="20px" viewBox="0 0 24 20" version="1.1" xmlns="http://www.w3.org/2000/svg" xmlns:xlink="http://www.w3.org/1999/xlink">
    <!-- Generator: sketchtool 57.1 (101010) - https://sketch.com -->
    <title>B7BFEFD3-387A-4D11-84A5-CE133C81ADBF</title>
    <desc>Created with sketchtool.</desc>
    <g id="Icons" stroke="none" stroke-width="1" fill="none" fill-rule="evenodd">
        <g id="IoT-Dashboard" transform="translate(-436.000000, -294.000000)" fill="#212121">
            <g id="icon/IoT-dashboard-icon/device/dashboard" transform="translate(436.000000, 292.000000)">
                <path d="M9,18 L15,18 L15,21 L9,21 L9,18 Z M2,21 L22,21 L22,22 L2,22 L2,21 Z" id="Combined-Shape" fill-rule="nonzero"></path>
                <path d="M13.75,2 C14.256261,2 14.6666667,2.41040565 14.6666667,2.91666667 L14.666,4 L21,4 C21.5522847,4 22,4.44771525 22,5 L22,8.238 L23.0833333,8.23809524 C23.5895944,8.23809524 24,8.64850088 24,9.1547619 L24,9.32142857 C24,9.82768959 23.5895944,10.2380952 23.0833333,10.2380952 L22,10.238 L22,11.666 L23.0833333,11.6666667 C23.5895944,11.6666667 24,12.0770723 24,12.5833333 L24,12.75 C24,13.256261 23.5895944,13.6666667 23.0833333,13.6666667 L22,13.666 L22,17 C22,17.5522847 21.5522847,18 21,18 L3,18 C2.44771525,18 2,17.5522847 2,17 L2,13.666 L0.916666667,13.6666667 C0.410405646,13.6666667 0,13.256261 0,12.75 L0,12.5833333 C0,12.0770723 0.410405646,11.6666667 0.916666667,11.6666667 L2,11.666 L2,10.238 L0.916666667,10.2380952 C0.410405646,10.2380952 0,9.82768959 0,9.32142857 L0,9.1547619 C0,8.64850088 0.410405646,8.23809524 0.916666667,8.23809524 L2,8.238 L2,5 C2,4.44771525 2.44771525,4 3,4 L9.333,4 L9.33333333,2.91666667 C9.33333333,2.41040565 9.74373898,2 10.25,2 C10.756261,2 11.1666667,2.41040565 11.1666667,2.91666667 L11.166,4 L12.833,4 L12.8333333,2.91666667 C12.8333333,2.41040565 13.243739,2 13.75,2 Z" id="Combined-Shape"></path>
            </g>
        </g>
    </g>
</svg>