<?xml version="1.0" encoding="UTF-8"?>
<svg width="20px" height="21px" viewBox="0 0 20 21" version="1.1" xmlns="http://www.w3.org/2000/svg" xmlns:xlink="http://www.w3.org/1999/xlink">
    <!-- Generator: sketchtool 57.1 (101010) - https://sketch.com -->
    <title>FB7BC919-67CA-4947-9CCA-175D777BDC75</title>
    <desc>Created with sketchtool.</desc>
    <g id="Icons" stroke="none" stroke-width="1" fill="none" fill-rule="evenodd">
        <g id="IoT-Dashboard" transform="translate(-967.000000, -331.000000)" fill="#212121">
            <g id="icon/Instrument-history" transform="translate(965.000000, 329.000000)">
                <g id="Group" transform="translate(2.000000, 2.000000)">
                    <path d="M17.1,3.55271368e-15 C17.5970563,3.35038362e-15 18,0.402943725 18,0.9 L18.0002124,8.80433642 C16.9429631,8.28909531 15.7552425,8 14.5,8 C11.6643699,8 9.17331823,9.47531567 7.75254685,11.7002452 L2.7,11.7 L2.7,12.6 L7.25622667,12.6002853 C6.98976038,13.1670605 6.78785434,13.770196 6.6599853,14.4002152 L2.7,14.4 L2.7,15.3 L6.53018794,15.3001647 C6.51020174,15.5307822 6.5,15.7641997 6.5,16 C6.5,16.6907281 6.58753869,17.3610104 6.75212715,18.0003581 L0.9,18 C0.402943725,18 1.10639085e-13,17.5970563 1.10134124e-13,17.1 L1.10134124e-13,0.9 C1.0996223e-13,0.402943725 0.402943725,4.08811065e-15 0.9,3.55271368e-15 L17.1,3.55271368e-15 Z M14.9999294,2 C14.7362653,1.99843961 14.4827742,2.10289986 14.2952236,2.29043535 C14.1076729,2.47797084 14.0014267,2.73321891 13.9998588,3.00002546 C13.9998588,3.18552357 14.0502576,3.3595218 14.1382085,3.50802029 L11.6261735,6.0204947 C11.4481547,5.87750685 11.2274233,5.79993831 11.0001412,5.80049694 C10.6162208,5.80049694 10.2826992,6.01649474 10.1151973,6.33349151 L8.00042352,5.15850348 L8.00042352,5.15000356 C8.00042352,4.59800919 7.55226936,4.15001375 6.99985883,4.15001375 C6.45099824,4.14696738 6.00354766,4.59460299 6.00028235,5.15000356 C6.00028235,5.23100274 6.00967036,5.30900195 6.02745818,5.38400118 L3.64586716,7.23648231 C3.46481009,7.08320713 3.23613103,6.99946242 3.00007059,6.99998472 C2.73640651,6.99838869 2.48291537,7.10284894 2.29536473,7.29038443 C2.10781409,7.47791992 2.00156786,7.73316798 2,7.99997454 C2,8.55246891 2.44766006,9 3.00007059,9 C3.26373467,9.00156039 3.5172258,8.89710014 3.70477644,8.70956465 C3.89232708,8.52202916 3.99857331,8.26678109 4.00014117,7.99997454 C4.00014117,7.87497581 3.9774123,7.75497703 3.93541328,7.64497815 L6.2675937,5.83099663 C6.45041293,6.02749463 6.7108068,6.14999338 6.99985883,6.14999338 C7.36846192,6.14999338 7.69012494,5.95099541 7.86355615,5.65499842 L10.0010588,6.84198633 C10.0267273,7.38057439 10.4672864,7.80301334 11.0001412,7.79997658 C11.5490018,7.80302294 11.9964523,7.35538734 11.9997177,6.79998676 C11.9997177,6.6679881 11.9740241,6.54148939 11.9275782,6.42599057 L14.4919884,3.86151669 C14.6407143,3.94951579 14.8146397,4.00001528 14.9999294,4.00001528 C15.2635935,4.00161131 15.5170846,3.89715106 15.7046353,3.70961557 C15.8921859,3.52208008 15.9984321,3.26683202 16,3.00002546 C16,2.44803108 15.5523399,2 14.9999294,2 Z" id="Combined-Shape"></path>
                </g>
                <path d="M14.5258233,21.2290756 C14.153827,20.9425749 13.8343479,20.5935195 13.5805152,20.1987992 L12.7677502,20.6679596 C13.1053603,21.2046792 13.5417525,21.6725886 14.0531692,22.0472915 L14.5258233,21.2290756 Z M17.6087032,22.0253973 L17.6087032,22.9718504 C20.3502217,22.6340548 22.2996071,20.1362444 21.9619971,17.3925939 C21.6531464,14.8860259 19.5262032,13.0025029 17.0016303,13.0000004 C15.3886045,12.9993752 13.8749861,13.7794327 12.9378057,15.0937076 L12.9378057,14.2510954 C12.9378057,13.9921188 12.7277372,13.7819349 12.4689028,13.7819349 C12.2100685,13.7819349 12,13.9921188 12,14.2510954 L12,16.1277373 C12,16.3867139 12.2100685,16.5968978 12.4689028,16.5968978 L14.5008151,16.5968978 C14.7596495,16.5968978 14.969718,16.3867139 14.969718,16.1277373 C14.969718,15.8687607 14.7596495,15.6585768 14.5008151,15.6585768 L13.6855494,15.6585768 C14.445172,14.5788822 15.6824503,13.9376962 17.0016303,13.9383217 C19.2461119,13.9364451 21.0673305,15.7549111 21.0692061,18.0006259 C21.0704565,20.0148883 19.5987268,21.7263857 17.6087032,22.0253973 L17.6087032,22.0253973 Z M16.6990316,22.0585513 C16.2157491,22.0235207 15.7437203,21.9015389 15.304202,21.6994871 L14.8334236,22.5152008 C15.4042346,22.7898161 16.0338148,22.959965 16.6990316,23 L16.6990316,22.0585513 Z" id="recent-changes"></path>
                <path d="M16.5477323,18.4585266 L18.3664501,18.4585266 C18.6171569,18.4585266 18.8203481,18.2552237 18.8203481,18.0043792 C18.8203481,17.7529092 18.6171569,17.5489808 18.3664501,17.5489808 L17.0016303,17.5489808 L17.0016303,16.1840365 C17.0016303,15.9325665 16.798439,15.7286381 16.5471071,15.7286381 C16.2957752,15.7286381 16.0919588,15.9325665 16.0919588,16.1840365 L16.0919588,18.0043792 C16.0919588,18.2552237 16.2957752,18.4585266 16.5471071,18.4585266 L16.5477323,18.4585266 Z" id="Path"></path>
            </g>
        </g>
    </g>
</svg>