<?xml version="1.0" encoding="UTF-8"?>
<svg width="20px" height="14px" viewBox="0 0 20 14" version="1.1" xmlns="http://www.w3.org/2000/svg" xmlns:xlink="http://www.w3.org/1999/xlink">
    <!-- Generator: sketchtool 57.1 (101010) - https://sketch.com -->
    <title>FFE3ED0A-13BE-410C-8F5F-33691FFB86EA</title>
    <desc>Created with sketchtool.</desc>
    <g id="Icons" stroke="none" stroke-width="1" fill="none" fill-rule="evenodd">
        <g id="IoT-Dashboard" transform="translate(-967.000000, -296.000000)" fill="#212121" fill-rule="nonzero">
            <g id="icon/Instrument-streaming" transform="translate(965.000000, 291.000000)">
                <path d="M15.7516764,14.7435639 C15.4973638,14.5392955 15.1820333,14.4284833 14.8573445,14.4292813 C14.3088868,14.4292813 13.8324275,14.7378496 13.593139,15.1907022 L10.5720336,13.5121478 L10.5720336,13.5 C10.5720336,12.7114417 9.93181337,12.0714482 9.14265547,12.0714482 C8.35856891,12.0670963 7.7193538,12.7065757 7.71468907,13.5 C7.71468907,13.6157182 7.72810052,13.7271456 7.75351168,13.8342874 L4.35123879,16.480689 C4.09258584,16.2617245 3.76590148,16.1420892 3.42867227,16.1428353 C3.0520093,16.1405553 2.6898791,16.2897842 2.42194961,16.557692 C2.15402013,16.8255999 2.0022398,17.19024 2,17.5713922 C2,18.3606699 2.63951436,19 3.42867227,19 C3.80533524,19.0022291 4.16746543,18.8530002 4.43539492,18.5850924 C4.7033244,18.3171845 4.85510473,17.9525444 4.85734453,17.5713922 C4.85734453,17.3928226 4.82487471,17.2213958 4.76487612,17.0642545 L8.09656243,14.4728523 C8.35773276,14.7535638 8.72972401,14.928562 9.14265547,14.928562 C9.66923131,14.928562 10.1287499,14.6442792 10.3765088,14.2214263 L13.430084,15.9171233 C13.4667533,16.6865348 14.0961234,17.2900191 14.8573445,17.2856808 C15.6414311,17.2900328 16.2806462,16.6505533 16.2853109,15.8571239 C16.2853109,15.6685544 16.2486059,15.487842 16.1822545,15.3228437 L19.8456977,11.6593096 C20.0581633,11.7850226 20.3066281,11.8571647 20.5713277,11.8571647 C20.9479907,11.8594447 21.3101209,11.7102158 21.5780504,11.442308 C21.8459799,11.1744001 21.9977602,10.80976 22,10.4286078 C22,9.6400444 21.3604856,9 20.5713277,9 C20.1946648,8.99777087 19.8325346,9.1469998 19.5646051,9.41490765 C19.2966756,9.68281549 19.1448953,10.0474556 19.1426555,10.4286078 C19.1426555,10.6936051 19.2146538,10.942174 19.3402979,11.1543147 L15.7516764,14.7435639 Z" id="Path"></path>
                <path d="M9.06045312,8.53533103 C10.6724633,8.53533103 12.140892,9.16332317 13.2440926,10.1928848 L12.3650793,11.0900266 C11.4874479,10.2895536 10.3295727,9.80299655 9.06045312,9.80299655 C7.73085404,9.80299655 6.52335461,10.337032 5.63228481,11.2065854 L4.7545757,10.3100779 C5.87037384,9.21117662 7.38815221,8.53533103 9.06045312,8.53533103 Z M9.06045312,5 C11.3576318,5 13.4465415,5.91091978 14.9999275,7.39845299 L14.1219976,8.29544792 C12.7936272,7.03701838 11.014991,6.26766552 9.06045312,6.26766552 C7.04571322,6.26766552 5.2178778,7.08514217 3.87745216,8.41311492 L3,7.517 L3.02217367,7.49456033 C4.58522136,5.95024998 6.71420662,5 9.06045312,5 Z" id="Combined-Shape"></path>
            </g>
        </g>
    </g>
</svg>