<?xml version="1.0" encoding="UTF-8"?>
<svg width="20px" height="19px" viewBox="0 0 20 19" version="1.1" xmlns="http://www.w3.org/2000/svg" xmlns:xlink="http://www.w3.org/1999/xlink">
    <!-- Generator: sketchtool 57.1 (101010) - https://sketch.com -->
    <title>69A52DFE-8C9D-4491-B3FD-7DD5CB6DF48F</title>
    <desc>Created with sketchtool.</desc>
    <g id="Icons" stroke="none" stroke-width="1" fill="none" fill-rule="evenodd">
        <g id="IoT-Dashboard" transform="translate(-176.000000, -295.000000)" fill="#212121" fill-rule="nonzero">
            <g id="icon/Dashboard/IoT-Dashboard-icon/IoT-dashboard" transform="translate(174.000000, 292.000000)">
                <path d="M15.1264706,10.7279998 C14.9145384,10.5645834 14.6517568,10.4759328 14.3811765,10.4765712 C13.9241176,10.4765712 13.5270588,10.7234284 13.3276471,11.0857141 L10.81,9.74285696 L10.81,9.73314267 C10.81,9.10228554 10.2764706,8.59028555 9.61882353,8.59028555 C8.96540269,8.58680395 8.4327109,9.0983927 8.42882353,9.73314267 C8.42882353,9.8257141 8.44,9.91485696 8.46117647,10.0005712 L5.62588235,12.1177141 C5.41033315,11.9425406 5.13808978,11.8468314 4.85705882,11.8474283 C4.54316563,11.8456043 4.24138336,11.9649886 4.01810354,12.1793171 C3.79482372,12.3936456 3.66833713,12.6853606 3.66647059,12.9902855 C3.66647059,13.621714 4.19941176,14.1331833 4.85705882,14.1331833 C5.17095202,14.1349667 5.47273428,14.0155823 5.69601411,13.8012538 C5.91929393,13.5869254 6.04578052,13.2952103 6.04764706,12.9902855 C6.04764706,12.8474283 6.02058824,12.7102855 5.97058824,12.5845712 L8.74705882,10.5114284 C8.96470588,10.7359998 9.27470588,10.8759998 9.61882353,10.8759998 C10.0576471,10.8759998 10.4405882,10.6485712 10.6470588,10.3102855 L13.1917647,11.6668569 C13.2223232,12.2823924 13.7468106,12.7651847 14.3811765,12.761714 C15.0345973,12.7651956 15.5672891,12.2536069 15.5711765,11.6188569 C15.5711765,11.4679998 15.5405882,11.3234284 15.4852941,11.1914284 L18.5382353,8.26057127 C18.7152941,8.3611427 18.9223529,8.41885698 19.1429412,8.41885698 C19.4568344,8.42068104 19.7586166,8.30129668 19.9818965,8.08696823 C20.2051763,7.87263978 20.3316629,7.58092474 20.3335294,7.27599986 C20.3335294,6.64514273 19.8005882,6.133102 19.1429412,6.133102 C18.829048,6.13131868 18.5272657,6.25070304 18.3039859,6.4650315 C18.0807061,6.67935995 17.9542195,6.97107499 17.9523529,7.27599986 C17.9523529,7.48799986 18.0123529,7.686857 18.1170588,7.85657128 L15.1264706,10.7279998 Z M9,17 L3.11176471,17.0000002 C2.49823529,17.0000002 2.00058824,16.5165716 2.00058824,15.9205716 L2,15.0000002 L22,15.0000002 L22,15.9205716 C22,16.5165716 21.5023529,17.0000002 20.8888235,17.0000002 L15,17 L15,21 L22,21 L22,22 L2,22 L2,21 L9,21 L9,17 Z M2,16.0000002 L2,4.079429 C2,3.79314675 2.11707004,3.51858988 2.32545605,3.31615776 C2.53384206,3.11372564 2.81647415,3.00000015 3.11117647,3.00000015 L20.8882353,3.00000015 C21.1830395,2.99984885 21.4658227,3.1135071 21.674336,3.31595565 C21.8828493,3.51840421 22,3.79304772 22,4.079429 L22,16.0000002 L2,16.0000002 Z" id="IoT-Dashboard"></path>
            </g>
        </g>
    </g>
</svg>